<svg width="680" viewBox="0 0 680 300" xmlns="http://www.w3.org/2000/svg" font-family="sans-serif">
  <style>
    .t  { font-size:14px; fill:#333; }
    .ts { font-size:12px; fill:#555; }
    .th { font-size:14px; fill:#333; font-weight:500; }
    .box-teal { fill:#E1F5EE; stroke:#0F6E56; }
    .box-gray { fill:#F1EFE8; stroke:#5F5E5A; }
  </style>
  <defs>
    <marker id="arrow" viewBox="0 0 10 10" refX="8" refY="5" markerWidth="6" markerHeight="6" orient="auto-start-reverse">
      <path d="M2 1L8 5L2 9" fill="none" stroke="#555" stroke-width="1.5" stroke-linecap="round" stroke-linejoin="round"/>
    </marker>
  </defs>

  <line x1="60" y1="240" x2="420" y2="240" stroke="#888" stroke-width="0.8" marker-end="url(#arrow)" fill="none"/>
  <line x1="60" y1="240" x2="60"  y2="40"  stroke="#888" stroke-width="0.8" marker-end="url(#arrow)" fill="none"/>
  <text class="ts" x="426" y="244">ε</text>
  <text class="ts" x="48"  y="38" text-anchor="end">S</text>

  <path d="M70,230 C100,225 130,200 160,165 C190,135 210,90 240,72 C265,58 285,70 310,100 C340,135 370,185 400,220"
        fill="none" stroke="#534AB7" stroke-width="1.8"/>

  <line x1="106" y1="237" x2="106" y2="243" stroke="#888" stroke-width="0.7" fill="none"/>
  <line x1="142" y1="237" x2="142" y2="243" stroke="#888" stroke-width="0.7" fill="none"/>
  <line x1="178" y1="237" x2="178" y2="243" stroke="#888" stroke-width="0.7" fill="none"/>
  <line x1="214" y1="237" x2="214" y2="243" stroke="#888" stroke-width="0.7" fill="none"/>
  <line x1="250" y1="237" x2="250" y2="243" stroke="#888" stroke-width="0.7" fill="none"/>
  <line x1="286" y1="237" x2="286" y2="243" stroke="#888" stroke-width="0.7" fill="none"/>
  <line x1="322" y1="237" x2="322" y2="243" stroke="#888" stroke-width="0.7" fill="none"/>
  <line x1="358" y1="237" x2="358" y2="243" stroke="#888" stroke-width="0.7" fill="none"/>
  <line x1="394" y1="237" x2="394" y2="243" stroke="#888" stroke-width="0.7" fill="none"/>

  <text class="ts" x="68" y="257">ε_min</text>
  <text class="ts" x="388" y="257" text-anchor="start">ε_max</text>
  <text class="ts" x="230" y="272" text-anchor="middle">coarse pass  (Frac = 10 steps)</text>

  <circle cx="250" cy="68" r="5" fill="#EF9F27"/>
  <line x1="250" y1="73" x2="250" y2="240" stroke="#EF9F27" stroke-width="0.7" stroke-dasharray="3 3" fill="none"/>
  <text class="ts" x="256" y="60" fill="#BA7517">coarse max</text>

  <line x1="215" y1="88" x2="215" y2="240" stroke="#1D9E75" stroke-width="0.6" stroke-dasharray="2 3" fill="none"/>
  <line x1="285" y1="88" x2="285" y2="240" stroke="#1D9E75" stroke-width="0.6" stroke-dasharray="2 3" fill="none"/>
  <path d="M215,92 L220,88 L280,88 L285,92" fill="none" stroke="#1D9E75" stroke-width="0.7"/>
  <text class="ts" x="250" y="84" text-anchor="middle" fill="#0F6E56">refined window</text>

  <circle cx="220" cy="82" r="3" fill="#5DCAA5"/>
  <circle cx="227" cy="76" r="3" fill="#5DCAA5"/>
  <circle cx="234" cy="72" r="3" fill="#5DCAA5"/>
  <circle cx="241" cy="69" r="3" fill="#5DCAA5"/>
  <circle cx="248" cy="68" r="4" fill="#0F6E56"/>
  <circle cx="255" cy="68" r="3" fill="#5DCAA5"/>
  <circle cx="262" cy="70" r="3" fill="#5DCAA5"/>
  <circle cx="269" cy="74" r="3" fill="#5DCAA5"/>
  <circle cx="276" cy="80" r="3" fill="#5DCAA5"/>
  <circle cx="283" cy="87" r="3" fill="#5DCAA5"/>

  <circle cx="248" cy="68" r="7" fill="none" stroke="#0F6E56" stroke-width="1.5"/>
  <line x1="248" y1="75" x2="248" y2="240" stroke="#0F6E56" stroke-width="0.8" stroke-dasharray="3 3" fill="none"/>

  <line x1="420" y1="68" x2="442" y2="98" stroke="#555" stroke-width="1" marker-end="url(#arrow)" fill="none"/>

  <rect x="444" y="58" width="196" height="76" rx="8" class="box-teal" stroke-width="0.5"/>
  <text class="th" x="542" y="81" text-anchor="middle" dominant-baseline="central">S_Max</text>
  <text class="ts" x="542" y="99" text-anchor="middle">maximum entropy achieved</text>
  <text class="ts" x="542" y="117" text-anchor="middle">+ optimal threshold ε*</text>

  <rect x="444" y="154" width="196" height="52" rx="8" class="box-gray" stroke-width="0.5"/>
  <text class="th" x="542" y="174" text-anchor="middle" dominant-baseline="central">No manual ε choice</text>
  <text class="ts" x="542" y="192" text-anchor="middle">parameter-free by design</text>
</svg>
